<svg id="Capa_1" data-name="Capa 1" xmlns="http://www.w3.org/2000/svg" viewBox="0 0 1197.2 318.03"><defs><style>.cls-1{fill:#ff6a00;}.cls-2{fill:#fff;}</style></defs><path class="cls-1" d="M290.87,143.14l-124,.35c-4.48,0-21.41.14-43.38,8.19-11.31,4.15-24.47,9.49-31.14,11.74-1.12.37-2.24,0-2.26-1.33-.12-7.42,1-15.27,1.41-21.31,3.42-48.19,45.34-78.3,97.34-78.3H382.2A2.63,2.63,0,0,1,385,64.84h0C385,108.08,342.88,143.14,290.87,143.14Z" transform="translate(-89.9 -62.48)"/><path class="cls-1" d="M238.57,253.54l-91.67.35c-3.31,0-15.83.15-32.07,8.19-8.37,4.15-18.1,9.5-23,11.74-.83.38-1.66,0-1.68-1.32-.08-7.42.73-15.27,1-21.31,2.53-48.19,33.52-78.3,72-78.3h143a2.24,2.24,0,0,1,2.09,2.36h0C308.2,218.49,277,253.54,238.57,253.54Z" transform="translate(-89.9 -62.48)"/><circle class="cls-1" cx="50.25" cy="267.78" r="50.25"/><path class="cls-2" d="M456.25,303.41V136.82H559.9v21.91H481.74v53.56H552.4v21.8H481.74v69.32Z" transform="translate(-89.9 -62.48)"/><path class="cls-2" d="M601.71,159.29a15.25,15.25,0,0,1-10.9-4.3,14,14,0,0,1,0-20.63,15.37,15.37,0,0,1,10.9-4.25,15.58,15.58,0,0,1,11,4.25,14,14,0,0,1,0,20.68A15.54,15.54,0,0,1,601.71,159.29ZM589.3,303.41v-125h24.6v125Z" transform="translate(-89.9 -62.48)"/><path class="cls-2" d="M693.51,305.87a48.16,48.16,0,0,1-27.06-7.77q-11.85-7.77-18.56-22.25t-6.71-34.6q0-20.35,6.82-34.77t18.67-22a48.62,48.62,0,0,1,26.84-7.6q11.63,0,18.73,3.85a35.26,35.26,0,0,1,11.12,9,67.51,67.51,0,0,1,6.15,9h1.34V136.82h24.6V303.41H731.52V283.85h-2a60.43,60.43,0,0,1-6.26,9.17A36.47,36.47,0,0,1,712,302Q704.79,305.88,693.51,305.87Zm5.36-20.9q10.51,0,17.73-5.59a34.54,34.54,0,0,0,10.95-15.49A64.3,64.3,0,0,0,731.3,241q0-13.09-3.69-22.76a33.05,33.05,0,0,0-10.9-15.09q-7.22-5.43-17.84-5.42-10.85,0-18,5.7A34.48,34.48,0,0,0,670,218.94,63.22,63.22,0,0,0,666.34,241,64,64,0,0,0,670,263.39a35.4,35.4,0,0,0,11,15.76Q688.26,285,698.87,285Z" transform="translate(-89.9 -62.48)"/><path class="cls-1" d="M859.66,305.65q-21.58,0-38.58-10.23T794.36,266q-9.74-19.17-9.73-45.78t9.73-45.9q9.72-19.17,26.72-29.46t38.58-10.29a78.68,78.68,0,0,1,24.76,3.81,65.8,65.8,0,0,1,20.69,11.06,61.92,61.92,0,0,1,15.09,17.67,68.86,68.86,0,0,1,8.11,23.59H902.7a39.42,39.42,0,0,0-5.53-14,40.08,40.08,0,0,0-9.67-10.34A41.14,41.14,0,0,0,874.75,160a51.45,51.45,0,0,0-14.87-2.12,46.79,46.79,0,0,0-25.66,7.21q-11.36,7.22-17.83,21.13t-6.49,34q0,20.13,6.6,34t17.89,21a46.82,46.82,0,0,0,25.49,7.1,49.17,49.17,0,0,0,14.81-2.18,43.31,43.31,0,0,0,12.75-6.37,38.41,38.41,0,0,0,9.73-10.34,40,40,0,0,0,5.53-14h25.72a65,65,0,0,1-43.33,52A76.66,76.66,0,0,1,859.66,305.65Z" transform="translate(-89.9 -62.48)"/><path class="cls-1" d="M1009,306q-17.55,0-30.69-8.05a54.28,54.28,0,0,1-20.4-22.59q-7.28-14.53-7.27-33.77,0-19.46,7.27-34a54.12,54.12,0,0,1,20.4-22.64q13.14-8.06,30.69-8.05t30.81,8.05a54.25,54.25,0,0,1,20.4,22.64q7.27,14.6,7.27,34,0,19.24-7.27,33.77a54.41,54.41,0,0,1-20.4,22.59Q1026.7,306,1009,306Zm0-20.8q11.4,0,18.84-6a35.57,35.57,0,0,0,11.07-15.88,62.71,62.71,0,0,0,3.63-21.75,64.05,64.05,0,0,0-3.63-22,35.45,35.45,0,0,0-11.07-16q-7.44-6-18.84-6t-18.67,6a35.66,35.66,0,0,0-11,15.93,63.58,63.58,0,0,0-3.64,22,62.47,62.47,0,0,0,3.64,21.75,35.78,35.78,0,0,0,11,15.88Q997.74,285.2,1009,285.19Z" transform="translate(-89.9 -62.48)"/><path class="cls-1" d="M1094.79,303.41v-125h23.81v20.13H1120a30.59,30.59,0,0,1,12.07-16.1,34.12,34.12,0,0,1,19.57-5.82c1.56,0,3.35.06,5.36.17a48.27,48.27,0,0,1,5,.5v23.48a32,32,0,0,0-5.15-.89,65.42,65.42,0,0,0-7.71-.45,32.53,32.53,0,0,0-15.32,3.58,26.44,26.44,0,0,0-10.62,9.9,27.67,27.67,0,0,0-3.8,14.59v75.91Z" transform="translate(-89.9 -62.48)"/><path class="cls-1" d="M1233.43,306q-18.45,0-31.86-7.94a52.78,52.78,0,0,1-20.63-22.36q-7.21-14.43-7.21-33.88,0-19.23,7.1-33.88a54.47,54.47,0,0,1,20.07-22.86q13-8.22,30.41-8.22a61.47,61.47,0,0,1,20.68,3.52,50.31,50.31,0,0,1,17.89,11,52.28,52.28,0,0,1,12.58,19.4q4.63,11.91,4.64,28.9v8.72h-99.62V230.07h87l-11.52,6a53.42,53.42,0,0,0-3.58-20.3,30.27,30.27,0,0,0-10.56-13.69q-7-4.92-17.5-4.92t-17.78,5a32.34,32.34,0,0,0-11.24,13.25,41.72,41.72,0,0,0-3.85,17.94V246q0,12.86,4.41,21.74a30.67,30.67,0,0,0,12.36,13.42,36.57,36.57,0,0,0,18.45,4.53,37.59,37.59,0,0,0,12.52-2,25.94,25.94,0,0,0,9.67-5.93,25.57,25.57,0,0,0,6.2-9.78l23.15,5.48a42.57,42.57,0,0,1-10.12,17,48.14,48.14,0,0,1-17.67,11.47A66.14,66.14,0,0,1,1233.43,306Z" transform="translate(-89.9 -62.48)"/></svg>