<svg id="Capa_1" data-name="Capa 1" xmlns="http://www.w3.org/2000/svg" viewBox="0 0 1337 402"><defs><style>.cls-1{fill:#0A1628;}.cls-2{fill:#ff6a00;}.cls-3{fill:#fff;}</style></defs><rect class="cls-1" width="1337" height="402"/><path class="cls-2" d="M308.93,130.24l-112,.31c-4,0-19.33.13-39.16,7.4-10.22,3.74-22.1,8.57-28.13,10.6-1,.34-2,0-2-1.2-.11-6.7.89-13.79,1.27-19.24C132,84.59,169.86,57.4,216.83,57.4H391.4A2.37,2.37,0,0,1,394,59.53h0C394,98.58,355.89,130.24,308.93,130.24Z" transform="translate(0.5 0)"/><path class="cls-2" d="M261.7,229.94l-82.78.31c-3,0-14.3.13-29,7.4-7.55,3.75-16.34,8.57-20.79,10.6-.75.34-1.5,0-1.51-1.2-.08-6.7.65-13.79.94-19.24,2.28-43.52,30.27-70.71,65-70.71h129.1a2,2,0,0,1,1.89,2.13h0C324.58,198.28,296.43,229.94,261.7,229.94Z" transform="translate(0.5 0)"/><circle class="cls-2" cx="173.32" cy="299.22" r="45.38"/><path class="cls-3" d="M458.27,275V124.53h93.6v19.79H481.29v48.36H545.1v19.69H481.29V275Z" transform="translate(0.5 0)"/><path class="cls-3" d="M589.63,144.83a13.8,13.8,0,0,1-9.85-3.89,12.65,12.65,0,0,1,0-18.63,13.88,13.88,0,0,1,9.85-3.84,14,14,0,0,1,9.89,3.84,12.61,12.61,0,0,1,0,18.68A14,14,0,0,1,589.63,144.83ZM578.42,275V162.09h22.21V275Z" transform="translate(0.5 0)"/><path class="cls-3" d="M672.52,277.19a43.52,43.52,0,0,1-24.43-7q-10.71-7-16.76-20.1t-6.06-31.25q0-18.37,6.16-31.4t16.86-19.89a43.94,43.94,0,0,1,24.23-6.86q10.5,0,16.91,3.48a31.6,31.6,0,0,1,10.05,8.13,61.25,61.25,0,0,1,5.55,8.18h1.21V124.53h22.22V275H706.85V257.3H705a53,53,0,0,1-5.65,8.28,32.75,32.75,0,0,1-10.2,8.13Q682.72,277.19,672.52,277.19Zm4.85-18.88q9.48,0,16-5.05a31.12,31.12,0,0,0,9.9-14,58.25,58.25,0,0,0,3.38-20.65,57.55,57.55,0,0,0-3.33-20.54,29.89,29.89,0,0,0-9.85-13.64q-6.51-4.89-16.1-4.89-9.79,0-16.31,5.15a31.09,31.09,0,0,0-9.79,14A56.93,56.93,0,0,0,648,218.63a57.83,57.83,0,0,0,3.33,20.2,32,32,0,0,0,9.89,14.23Q667.78,258.31,677.37,258.31Z" transform="translate(0.5 0)"/><path class="cls-2" d="M822.56,277q-19.48,0-34.83-9.24T763.59,241.2q-8.77-17.31-8.78-41.35t8.78-41.44q8.79-17.32,24.14-26.61t34.83-9.29a71.43,71.43,0,0,1,22.36,3.43,59.45,59.45,0,0,1,18.68,10,55.69,55.69,0,0,1,13.63,15.95,62.23,62.23,0,0,1,7.32,21.31H861.43a35.52,35.52,0,0,0-5-12.67,36.18,36.18,0,0,0-8.73-9.34,36.92,36.92,0,0,0-11.51-5.76,46.24,46.24,0,0,0-13.43-1.92A42.2,42.2,0,0,0,799.59,150q-10.25,6.51-16.1,19.08t-5.86,30.74q0,18.18,6,30.75t16.15,19a42.38,42.38,0,0,0,23,6.41,44.78,44.78,0,0,0,13.38-2,39.31,39.31,0,0,0,11.51-5.75,34.78,34.78,0,0,0,8.78-9.34,36,36,0,0,0,5-12.62h23.22a58.76,58.76,0,0,1-39.12,47A69.37,69.37,0,0,1,822.56,277Z" transform="translate(0.5 0)"/><path class="cls-2" d="M957.45,277.29q-15.86,0-27.71-7.27a49,49,0,0,1-18.43-20.39q-6.57-13.12-6.56-30.49,0-17.58,6.56-30.75A48.91,48.91,0,0,1,929.74,168q11.85-7.27,27.71-7.27T985.27,168a48.89,48.89,0,0,1,18.42,20.44q6.57,13.19,6.57,30.75,0,17.37-6.57,30.49A48.93,48.93,0,0,1,985.27,270Q973.41,277.3,957.45,277.29Zm0-18.78q10.31,0,17-5.4a32.17,32.17,0,0,0,10-14.33,56.56,56.56,0,0,0,3.28-19.64,57.67,57.67,0,0,0-3.28-19.84,32.07,32.07,0,0,0-10-14.44q-6.71-5.4-17-5.4t-16.86,5.4a32.36,32.36,0,0,0-10,14.39,57.79,57.79,0,0,0-3.28,19.89,56.8,56.8,0,0,0,3.28,19.64,32.39,32.39,0,0,0,10,14.33Q947.25,258.51,957.45,258.51Z" transform="translate(0.5 0)"/><path class="cls-2" d="M1034.89,275V162.09h21.51v18.17h1.21a27.64,27.64,0,0,1,10.91-14.53,30.82,30.82,0,0,1,17.66-5.25c1.42,0,3,.05,4.85.15a43.06,43.06,0,0,1,4.54.45v21.2a28.76,28.76,0,0,0-4.64-.8,59.43,59.43,0,0,0-7-.41,29.38,29.38,0,0,0-13.83,3.23,23.93,23.93,0,0,0-9.59,8.94,25,25,0,0,0-3.43,13.18V275Z" transform="translate(0.5 0)"/><path class="cls-2" d="M1160.09,277.29q-16.65,0-28.77-7.16a47.62,47.62,0,0,1-18.63-20.2q-6.51-13-6.51-30.59,0-17.37,6.41-30.59a49.22,49.22,0,0,1,18.12-20.65q11.71-7.42,27.46-7.42a55.55,55.55,0,0,1,18.68,3.18A45.44,45.44,0,0,1,1193,173.8a47.26,47.26,0,0,1,11.36,17.52q4.19,10.76,4.19,26.1v7.88h-90V208.74h78.56l-10.4,5.45a48.41,48.41,0,0,0-3.23-18.33A27.34,27.34,0,0,0,1174,183.5q-6.32-4.45-15.81-4.45a27.79,27.79,0,0,0-16.05,4.55,29.3,29.3,0,0,0-10.15,12,37.71,37.71,0,0,0-3.48,16.21v11.3q0,11.63,4,19.64a27.73,27.73,0,0,0,11.15,12.12,33,33,0,0,0,16.66,4.09,34,34,0,0,0,11.31-1.77A22.88,22.88,0,0,0,1185.94,243l20.9,4.94a38.46,38.46,0,0,1-9.14,15.35,43.55,43.55,0,0,1-16,10.35A59.7,59.7,0,0,1,1160.09,277.29Z" transform="translate(0.5 0)"/></svg>