<svg id="Capa_1" data-name="Capa 1" xmlns="http://www.w3.org/2000/svg" viewBox="0 0 295.14 318.03"><defs><style>.cls-1{fill:#ff6a00;}</style></defs><path class="cls-1" d="M312.41,143.14l-124,.35c-4.47,0-21.41.14-43.37,8.19-11.32,4.15-24.47,9.49-31.15,11.74-1.11.37-2.24,0-2.26-1.33-.12-7.42,1-15.27,1.41-21.31,3.42-48.19,45.34-78.3,97.34-78.3H403.73a2.63,2.63,0,0,1,2.84,2.36h0C406.57,108.08,364.41,143.14,312.41,143.14Z" transform="translate(-111.43 -62.48)"/><path class="cls-1" d="M260.1,253.54l-91.67.35c-3.3,0-15.83.15-32.07,8.19-8.37,4.15-18.09,9.5-23,11.74-.83.38-1.66,0-1.67-1.32-.09-7.42.73-15.27,1-21.31,2.53-48.19,33.53-78.3,72-78.3h143a2.23,2.23,0,0,1,2.09,2.36h0C329.73,218.49,298.56,253.54,260.1,253.54Z" transform="translate(-111.43 -62.48)"/><circle class="cls-1" cx="50.25" cy="267.78" r="50.25"/></svg>