<svg id="Capa_1" data-name="Capa 1" xmlns="http://www.w3.org/2000/svg" viewBox="0 0 1061 378"><defs><style>.cls-1{fill:#0a1628;}.cls-2{fill:#fff;}.cls-3{fill:#e85d1f;}</style></defs><rect class="cls-1" x="0.31" y="0.31" width="1060.38" height="377.38"/><path d="M1060.38.62V377.38H.62V.62H1060.38M1061,0H0V378H1061V0Z"/><path class="cls-2" d="M357.89,235.12q-24.79,0-38.64-13.6t-13.84-38.4V120.88h31.68v61.28q0,14.25,5.6,20.48t15.52,6.24q9.92,0,15.44-6.24t5.52-20.48V120.88h31.36v62.24q0,24.81-14,38.4T357.89,235.12Z"/><path class="cls-2" d="M443.33,232.88v-112H475v86.88h53.28v25.12Z"/><path class="cls-2" d="M546.69,232.88v-20l65.76-78.24L616.29,146H548V120.88h96.48v20l-65.92,78.24-3.84-11.36h72.16v25.12Z"/><path class="cls-2" d="M658.53,232.88l49.44-112h31.2l49.6,112h-33L717.09,136.4h12.48l-38.72,96.48Zm27-21.92,8.16-23.2h54.72l8.16,23.2Z"/><path class="cls-2" d="M808.93,232.88v-112h49.92q24.63,0,37.76,11t13.12,30.24q0,13-6,22.08a38.23,38.23,0,0,1-17.2,14q-11.21,4.89-26.56,4.88h-33.6l14.24-13.44v43.2Zm31.68-39.52-14.24-14.72h31.68q9.91,0,14.88-4.32t5-12.16q0-7.51-5-11.92t-14.88-4.4H826.37l14.24-14.56Zm37.44,39.52-27.84-40.8H884l28,40.8Z"/><rect class="cls-3" x="133.97" y="72.77" width="48.12" height="216.8"/><path class="cls-3" d="M182,72.9V289.44H134.1V72.9H182m.26-.26H133.84V289.7h48.38V72.64Z"/><polygon class="cls-3" points="192.81 183.52 232.02 183.52 234.15 181.47 234.15 123.35 232.12 121.34 192.81 121.3 192.81 72.79 245.96 72.77 283.38 109.81 283.42 194.54 245.91 231.94 192.81 232.03 192.81 183.52"/><path class="cls-3" d="M245.85,72.9l37.4,37,0,84.62-37.39,37.3-53,.12V183.65h39.19l.07-.07,2-2,.08-.08V123.29l-.08-.08-2-2-.07-.08h-39.2V72.92l52.91,0m.11-.26-53.28,0v48.77H232l2,2v58l-2,2H192.68v48.77L246,232l37.55-37.45,0-84.83L246,72.64Z"/></svg>