<svg xmlns="http://www.w3.org/2000/svg" viewBox="0 0 778.13 217.06"><defs><style>.cls-1{fill:#fff;}.cls-2{fill:#e85d1f;}</style></defs><g id="Capa_2" data-name="Capa 2"><g id="Capa_1-2" data-name="Capa 1"><path class="cls-1" d="M224.06,162.48q-24.81,0-38.64-13.6t-13.84-38.4V48.24h31.68v61.28q0,14.25,5.6,20.48t15.52,6.24q9.92,0,15.44-6.24t5.52-20.48V48.24H276.7v62.24q0,24.81-14,38.4T224.06,162.48Z"/><path class="cls-1" d="M309.5,160.24v-112h31.68v86.88h53.28v25.12Z"/><path class="cls-1" d="M412.85,160.24v-20L478.61,62l3.84,11.36H414.13V48.24h96.48v20l-65.92,78.24-3.84-11.36H513v25.12Z"/><path class="cls-1" d="M524.69,160.24l49.44-112h31.2l49.6,112H622L583.25,63.76h12.48L557,160.24Zm27-21.92,8.16-23.2h54.72l8.16,23.2Z"/><path class="cls-1" d="M675.09,160.24v-112H725q24.65,0,37.76,11t13.12,30.24q0,13-6,22.08a38.17,38.17,0,0,1-17.2,14q-11.21,4.89-26.56,4.88h-33.6L706.77,117v43.2Zm31.68-39.52L692.53,106h31.68q9.91,0,14.88-4.32t5-12.16q0-7.51-5-11.92t-14.88-4.4H692.53l14.24-14.56Zm37.44,39.52-27.84-40.8h33.76l28,40.8Z"/><rect class="cls-2" x="0.13" y="0.13" width="48.12" height="216.8"/><path class="cls-2" d="M48.12.26V216.8H.26V.26H48.12M48.38,0H0V217.06H48.38V0Z"/><polygon class="cls-2" points="58.97 110.88 98.18 110.88 100.31 108.83 100.31 50.7 98.29 48.7 58.97 48.66 58.97 0.15 112.13 0.13 149.54 37.17 149.59 121.9 112.08 159.31 58.97 159.39 58.97 110.88"/><path class="cls-2" d="M112,.26l37.39,37,.05,84.62-37.4,37.3-53,.12V111H98.29l.08-.07,2-2,.07-.08V50.65l-.07-.08-2-2-.08-.08H59.1V.28L112,.26m.11-.26L58.84,0V48.79H98.19l2,2v58l-2,2H58.84v48.77l53.33-.12L149.72,122l-.05-84.84L112.13,0Z"/></g></g></svg>