<svg xmlns="http://www.w3.org/2000/svg" viewBox="0 0 400 400">
  <g transform="translate(85.5, 34)" fill="#e85d1f">
    <rect x="0.4" y="0.4" width="73.2" height="331.2"/>
    <path d="M73.2.8V331.2H.8V.8H73.2M74,0H0V332H74V0Z"/>
    <polygon points="90.2 169.6 150.26 169.6 153.43 166.46 153.43 77.56 150.28 74.43 90.2 74.43 90.2 0.23 171.42 0.2 228.74 56.85 228.8 186.45 171.49 243.61 90.2 243.8 90.2 169.6"/>
    <path d="M171.34.4l57.2,56.54.06,129.43-57.2,57-81,.19V169.8h59.94l.12-.12,3.06-3,.11-.12V77.47l-.11-.11-3.05-3-.11-.12h-60V.43l80.94,0m.16-.4L90,0v74.6h60.19l3.05,3v88.73l-3.06,3H90V244l81.57-.19L229,186.53l-.07-129.76L171.5,0Z"/>
  </g>
</svg>
